<?xml version="1.0" standalone="no"?><!DOCTYPE svg PUBLIC "-//W3C//DTD SVG 1.1//EN" "http://www.w3.org/Graphics/SVG/1.1/DTD/svg11.dtd"><svg t="1656169058538" class="icon" viewBox="0 0 1024 1024" version="1.1" xmlns="http://www.w3.org/2000/svg" p-id="33178" xmlns:xlink="http://www.w3.org/1999/xlink" width="200" height="200"><defs><style type="text/css">@font-face { font-family: feedback-iconfont; src: url("//at.alicdn.com/t/font_1031158_u69w8yhxdu.woff2?t=1630033759944") format("woff2"), url("//at.alicdn.com/t/font_1031158_u69w8yhxdu.woff?t=1630033759944") format("woff"), url("//at.alicdn.com/t/font_1031158_u69w8yhxdu.ttf?t=1630033759944") format("truetype"); }
</style></defs><path d="M512 512m-448 0a448 448 0 1 0 896 0 448 448 0 1 0-896 0Z" fill="#FFFAED" p-id="33179"></path><path d="M241.277 551.006c5.045-4.354 12.576-3.68 16.93 1.365 4.354 5.045 3.68 12.576-1.365 16.93-13.655 11.63-18.888 20.694-17.645 25.33 1.061 3.96 7.733 8.384 21.155 11.724 15.516 3.814 37.593 5.456 64.576 4.542 56.368-1.75 130.438-13.935 207.519-34.589 77.08-20.654 147.32-47.135 197.036-73.708 23.896-12.822 42.22-25.186 53.654-36.221 9.954-9.603 13.52-16.77 12.459-20.731-1.242-4.636-10.086-9.824-27.315-13.076-6.546-1.248-10.825-7.556-9.55-14.005 1.248-6.546 7.556-10.825 14.005-9.55 25.308 4.813 41.65 14.41 45.946 30.445 3.856 14.392-3.437 29.288-19.002 44.225-13.344 12.79-33.297 26.418-59.02 40.144-51.352 27.425-123.279 54.566-202.002 75.66s-154.583 33.552-212.986 35.432c-29.044 0.95-53.209-0.755-71.186-5.255-20.851-5.18-34.59-14.336-38.471-28.825-4.349-16.228 5.294-32.788 25.262-49.837z" fill="#FFC014" p-id="33180"></path><path d="M575.152 735.686c-130.207 34.889-263.95-42.327-298.838-172.534-34.889-130.207 42.327-263.95 172.534-298.838s263.95 42.327 298.838 172.534-42.327 263.95-172.534 298.838z m-8.282-30.91C679.98 674.47 747.084 558.24 716.776 445.13S570.24 264.916 457.13 295.224C344.02 325.53 276.916 441.76 307.224 554.87 337.53 667.98 453.76 735.084 566.87 704.776z" fill="#FFC014" p-id="33181"></path><path d="M533.239 398.443l1.383-1.406a24.836 24.836 0 0 1 24.148-6.47l1.901 0.525c7.481 2.033 13.305 7.927 15.324 15.46 0.983 3.671-1.138 7.346-4.809 8.33-1.255 0.336-2.615 0.286-3.858-0.106l-2.269-0.738a22.708 22.708 0 0 0-24.148 6.47l-1.595 1.774c-2.451 2.83-6.837 3.074-9.597 0.501-0.961-0.881-1.684-2.034-2.02-3.29-2.02-7.533 0.077-15.55 5.54-21.05zM416.362 429.76l1.383-1.406a24.836 24.836 0 0 1 24.148-6.47l1.901 0.525c7.481 2.033 13.305 7.927 15.324 15.46 0.983 3.671-1.138 7.346-4.809 8.33-1.255 0.336-2.615 0.286-3.858-0.106l-2.269-0.738a22.708 22.708 0 0 0-24.148 6.47l-1.595 1.774c-2.451 2.83-6.837 3.074-9.598 0.501-0.96-0.881-1.683-2.033-2.02-3.29-2.018-7.533 0.078-15.55 5.54-21.05z m99.11 21.377c-1.709-6.376 2.11-12.99 8.485-14.697s12.989 2.11 14.697 8.485c5.642 21.057-7.215 42.62-28.466 48.314-21.25 5.694-43.166-6.551-48.808-27.609-1.709-6.375 2.11-12.988 8.485-14.697s12.989 2.11 14.697 8.486c2.174 8.114 10.818 12.94 19.415 10.637s13.669-10.806 11.494-18.92z" fill="#FFC014" p-id="33182"></path><path d="M398.173 496.336c-11.205 3.002-21.604 0.509-23.26-5.673s6.102-13.541 17.307-16.544 21.605-0.509 23.261 5.673c1.657 6.182-6.103 13.541-17.308 16.544z m210.572-56.423c-11.205 3.002-21.605 0.51-23.261-5.673s6.103-13.54 17.308-16.543 21.604-0.51 23.26 5.673-6.102 13.54-17.307 16.543z" fill="#FFD45D" p-id="33183"></path></svg>