<?xml version="1.0" standalone="no"?><!DOCTYPE svg PUBLIC "-//W3C//DTD SVG 1.1//EN" "http://www.w3.org/Graphics/SVG/1.1/DTD/svg11.dtd"><svg t="1656152766359" class="icon" viewBox="0 0 1024 1024" version="1.1" xmlns="http://www.w3.org/2000/svg" p-id="33511" xmlns:xlink="http://www.w3.org/1999/xlink" width="200" height="200"><defs><style type="text/css">@font-face { font-family: feedback-iconfont; src: url("//at.alicdn.com/t/font_1031158_u69w8yhxdu.woff2?t=1630033759944") format("woff2"), url("//at.alicdn.com/t/font_1031158_u69w8yhxdu.woff?t=1630033759944") format("woff"), url("//at.alicdn.com/t/font_1031158_u69w8yhxdu.ttf?t=1630033759944") format("truetype"); }
</style></defs><path d="M901.032584 337.706667a142.08 142.08 0 0 0-117.973333-192 142.293333 142.293333 0 0 0-205.866667-72.746667L571.219251 64l-1.92-2.56c-1.28-2.133333-2.773333-4.053333-4.266667-6.186667l-2.133333-2.56c-1.706667-1.92-3.2-3.84-5.12-5.76a8.32 8.32 0 0 0-1.706667-2.133333c-2.133333-2.346667-4.48-4.48-6.826667-6.613333a154.026667 154.026667 0 0 0-17.493333-13.653334c-3.626667-3.2-6.613333-4.48-9.813333-6.186666-3.2-1.706667-6.186667-3.413333-9.6-4.906667A140.16 140.16 0 0 0 452.392584 0a142.293333 142.293333 0 0 0-140.373333 119.68 160.853333 160.853333 0 0 0-17.493334-1.28 142.506667 142.506667 0 0 0-142.506666 142.293333v11.52a141.866667 141.866667 0 0 0-13.226667 230.826667v7.68A142.08 142.08 0 0 0 339.965917 640a231.466667 231.466667 0 0 0 32.853334 18.773333l82.133333 140.373334v223.573333h94.72V746.666667l98.773333-64a142.72 142.72 0 0 0 195.413334-117.12 142.293333 142.293333 0 0 0 92.373333-122.026667 98.346667 98.346667 0 0 0 0-11.306667 141.226667 141.226667 0 0 0-35.626667-94.08zM414.419251 673.92a296.32 296.32 0 0 0 40.533333 7.893333v61.226667z m135.253333 5.76a270.72 270.72 0 0 0 64-19.413333l11.306667 8.533333-75.306667 50.133333z" p-id="33512" data-spm-anchor-id="a313x.7781069.0.i16" class="selected" fill="#fefefe"></path></svg>